<svg xmlns="http://www.w3.org/2000/svg" viewBox="0 0 512 512" role="img" aria-labelledby="title">
  <title>Fetch Bridge</title>
  <circle cx="256" cy="256" r="248" fill="#fc7309"/>
  <path fill="#fdfcfb" d="M142 245c0 6 .2 6.3.7 6.1 10-4 22-12 42-20 55-22 112-11 143 4 14 7 24 13 42 25 2 1 3-1 3-34 0-17 2-30 16-33 13-3 22 8 22 18 0 34-1 94 1 98 5 11 24 5 27 20 1 4-1 10-10 8-65-17-108-20-157-17-26 2-65 8-84 13-18 4-31 7-48 11-28 7-35 12-39 0-2-7 5-11 15-14 10-3 14-1 14-16 0-41-1-118 1-124 5-17 30-15 33 2v67Zm104 45c-2 0-2-2-2-6v-48c0-4 1-5 4-6 28-9 52-10 52-8v61c-38 1-38 5-54 5Zm68-60c1-5 53 6 54 10v49c-1 2-16-1-29-2-9-1-17-1-25-2v-55Zm-172 74v-26l42-24c5-2 13-9 14-7v46c-19 3-38 6-54 11Zm228-26 42 28v12c0 2-2 1-20-3-18-4-34-7-35-10v-42c1-2 9 3 13 5Z"/>
  <path fill="#fdaf72" d="M207 350c-31 1-52 8-77 14l-44 13c-12 4-22-16-1-20 24-4 68-26 113-12 20 6 33 15 40 21 7 5 12-6 40-12 19-5 34-2 55 3l83 23c11 4 1 16-7 13l-70-20c-56-14-71-8-106 6-13 5-25-8-37-13-22-9-34-8-49-7Z"/>
  <path fill="#fdaf72" d="M205 410c-24 0-36 5-53 5-18 1-34 8-57 6-5 0-4-5 1-5 36-3 92-28 128-17 21 6 31 15 42 12 30-9 39-35 120-7 38 13 42 8 45 12 3 3-10 4-24 5-42 1-79-17-94-18-28-2-48 8-67 22-23 17-30 17-58 4-17-8-26-7-43-6Z"/>
  <path fill="#fdfbfA" d="M247 157v62l17-17c7-7 17 3 11 11l-36 37c-7 6-11 5-24-8l-19-19c-7-8 4-18 11-12l20 19v-73c0-16 20-14 20 0Z"/>
</svg>
